<?xml version="1.0" standalone="no"?>
<!DOCTYPE svg PUBLIC "-//W3C//DTD SVG 20010904//EN"
 "http://www.w3.org/TR/2001/REC-SVG-20010904/DTD/svg10.dtd">
<svg version="1.0" xmlns="http://www.w3.org/2000/svg"
 width="300.000000pt" height="301.000000pt" viewBox="0 0 300.000000 301.000000"
 preserveAspectRatio="xMidYMid meet">
<metadata>
Created by potrace 1.10, written by Peter Selinger 2001-2011
</metadata>
<g transform="translate(0.000000,301.000000) scale(0.100000,-0.100000)"
fill="#000000" stroke="none">
<path d="M1887 2978 c-3 -18 -11 -103 -17 -188 -6 -85 -15 -164 -20 -175 -5
-11 -11 -57 -14 -102 -5 -71 -3 -81 10 -76 8 3 13 11 10 18 -4 11 11 208 38
498 6 62 2 77 -7 25z"/>
<path d="M1916 2958 c-3 -29 -10 -107 -16 -173 -5 -66 -14 -169 -20 -229 -5
-60 -9 -110 -7 -111 1 -2 40 4 87 13 l85 15 27 266 c24 241 26 283 14 270 -2
-2 -16 -121 -30 -264 -15 -143 -29 -261 -32 -264 -14 -15 -12 34 11 264 24
227 26 280 11 264 -2 -2 -9 -58 -15 -124 -6 -66 -18 -183 -26 -260 -8 -77 -15
-144 -15 -149 0 -6 -4 -6 -10 0 -6 6 -1 101 15 268 23 233 25 279 11 265 -3
-2 -15 -120 -27 -262 -21 -236 -30 -290 -42 -277 -3 3 6 124 19 269 22 240 24
284 9 270 -2 -3 -13 -113 -25 -244 -23 -276 -27 -305 -41 -305 -7 0 -9 17 -5
48 3 26 11 103 16 172 6 69 13 154 15 190 3 36 8 82 11 103 2 20 0 37 -5 37
-5 0 -12 -24 -15 -52z"/>
<path d="M2116 2963 c-3 -27 -15 -139 -26 -250 -11 -112 -23 -210 -27 -219 -6
-15 -1 -16 42 -11 27 4 50 8 51 10 4 3 54 473 54 502 0 11 -3 15 -8 10 -5 -6
-19 -116 -31 -245 -13 -129 -27 -242 -32 -250 -14 -24 -10 46 15 280 13 118
22 217 20 219 -11 12 -17 -27 -40 -255 -14 -137 -30 -253 -35 -258 -5 -6 -9
-1 -9 15 0 32 38 425 45 467 3 17 2 32 -4 32 -5 0 -12 -21 -15 -47z"/>
<path d="M2237 3000 c-10 -26 -58 -492 -57 -555 0 -67 7 -198 16 -291 l5 -61
-63 -34 c-35 -18 -89 -47 -121 -62 -32 -16 -55 -32 -52 -35 3 -3 58 20 121 53
67 33 119 54 122 48 8 -11 8 -11 167 -68 66 -24 165 -60 220 -81 55 -20 110
-39 123 -41 12 -3 29 -15 37 -26 8 -12 15 -16 15 -9 0 9 12 7 43 -5 23 -9 47
-19 52 -23 8 -6 51 -19 85 -25 3 0 15 -6 28 -13 18 -10 22 -10 22 1 0 7 -36
24 -87 41 -49 16 -110 39 -138 52 -27 13 -164 66 -304 118 l-255 94 3 63 c1
35 22 243 47 461 24 218 44 400 43 405 0 4 -4 -1 -9 -12 -7 -17 -9 -17 -9 -2
-1 19 -21 24 -21 6 0 -30 -62 -559 -70 -599 -15 -74 -2 106 26 363 23 208 26
279 11 237z"/>
<path d="M2390 3007 c0 -2 20 -86 44 -187 43 -185 43 -185 72 -188 16 -1 127
-16 247 -32 252 -35 247 -34 247 -16 0 9 -19 15 -62 19 -94 8 -231 27 -240 33
-4 3 -8 16 -8 28 0 35 -22 47 -81 45 -45 -2 -54 -6 -68 -31 -9 -15 -19 -28
-22 -28 -16 0 -39 29 -43 55 -9 48 -22 114 -41 195 -10 41 -18 83 -18 93 -1 9
-7 17 -14 17 -7 0 -13 -1 -13 -3z m280 -342 c0 -27 -4 -35 -18 -35 -14 0 -18
8 -19 35 -1 28 3 35 18 35 15 0 19 -7 19 -35z m-68 0 c4 -21 1 -25 -18 -25
-28 0 -29 3 -12 30 17 27 25 25 30 -5z"/>
<path d="M2660 2915 c-8 -38 -8 -60 -1 -74 16 -29 13 -39 -4 -17 -12 16 -15
17 -15 4 0 -9 4 -18 9 -20 5 -1 1 -14 -10 -27 l-19 -23 0 101 c0 64 -4 101
-11 101 -7 0 -8 -25 -5 -72 l6 -73 -23 66 c-13 38 -27 64 -33 62 -11 -4 29
-128 56 -175 5 -10 7 -24 4 -33 -3 -8 -1 -15 5 -15 6 0 11 5 11 10 0 6 27 51
61 101 33 50 59 93 56 95 -2 3 -19 -18 -37 -46 -33 -52 -50 -53 -49 -5 0 20 1
20 8 0 7 -18 8 -17 14 7 4 14 9 34 12 45 3 10 -2 5 -10 -12 l-15 -30 6 43 c8
60 -3 52 -16 -13z"/>
<path d="M1602 2833 l-2 -73 121 0 122 0 -6 -57 c-5 -48 -4 -53 5 -30 6 18 7
57 2 105 -5 57 -9 69 -13 47 l-6 -30 -103 -2 c-114 -2 -107 -7 -115 77 -2 19
-5 2 -5 -37z"/>
<path d="M0 2813 c0 -6 110 -13 288 -17 470 -11 1028 -25 1170 -31 72 -3 132
-1 132 4 0 5 -86 9 -190 10 -105 1 -248 6 -318 10 -70 5 -237 10 -372 11 -135
1 -272 3 -305 5 -267 14 -405 17 -405 8z"/>
<path d="M0 2779 c0 -5 10 -9 23 -9 31 0 43 -11 49 -43 6 -32 -6 -42 -44 -38
-16 1 -28 -2 -28 -8 0 -15 63 -14 78 1 8 8 15 8 24 1 8 -7 84 -12 200 -12 164
-1 188 0 196 15 6 11 11 13 16 5 12 -19 57 -13 63 9 3 11 10 17 15 14 5 -3 9
0 7 7 -4 31 2 39 31 39 19 0 33 -6 37 -16 7 -19 -10 -50 -26 -47 -6 2 -8 -4
-4 -13 4 -11 8 -12 13 -4 3 6 14 8 23 4 14 -5 17 0 17 30 0 34 1 36 35 36 34
0 35 -2 35 -36 0 -25 -4 -35 -12 -31 -7 2 -22 1 -33 -4 -12 -4 24 -8 88 -8 59
-1 107 -5 107 -10 0 -11 -74 -21 -78 -9 -2 4 -35 8 -73 8 -41 0 -68 -4 -64 -9
3 -5 23 -8 45 -6 22 3 40 0 40 -5 0 -6 32 -10 71 -10 44 0 68 4 64 10 -3 6 4
10 17 10 34 0 68 11 68 21 0 5 -11 9 -25 9 -22 0 -25 4 -25 35 0 32 2 35 29
35 32 0 47 -25 37 -58 -5 -16 0 -19 29 -20 19 -1 35 3 35 8 0 15 -18 21 -26 8
-5 -8 -10 -6 -15 8 -16 40 -10 54 21 54 27 0 30 -3 30 -34 0 -19 6 -36 13 -39
9 -3 11 6 9 34 -4 38 -3 39 27 39 25 0 31 -4 31 -22 1 -23 1 -23 16 -3 13 18
13 20 -7 27 -12 5 -38 8 -58 8 -20 -1 -130 2 -246 5 -116 3 -224 6 -241 6 -17
1 -41 -4 -52 -10 -28 -15 -63 -14 -76 3 -9 11 -62 15 -258 19 -139 2 -248 1
-248 -4z m157 -15 c23 -6 37 -52 21 -71 -8 -10 -64 -11 -73 -1 -3 3 -8 58 -6
71 1 8 27 9 58 1z m127 -35 c8 -40 1 -49 -33 -49 -35 0 -51 17 -51 52 0 26 3
28 39 28 35 0 39 -3 45 -31z m102 6 c10 -40 -2 -57 -38 -53 -30 3 -33 6 -36
41 -3 36 -3 37 32 37 30 0 37 -4 42 -25z m99 -6 c9 -38 -4 -52 -41 -47 -21 2
-30 10 -35 32 -11 38 -5 46 36 46 29 0 34 -4 40 -31z m363 -16 c3 -32 2 -33
-32 -33 -35 0 -36 1 -36 36 0 34 1 35 33 32 28 -3 32 -7 35 -35z m82 2 c0 -32
-3 -35 -29 -35 -24 0 -29 5 -33 30 -5 36 -3 40 34 40 25 0 28 -3 28 -35z
m-360 5 c0 -11 -50 -19 -56 -9 -10 16 5 26 31 21 14 -2 25 -8 25 -12z"/>
<path d="M1290 2744 c-95 -35 -178 -93 -164 -115 7 -12 54 12 54 28 0 7 6 13
14 13 8 0 16 7 20 15 3 8 15 15 26 15 12 0 18 4 15 10 -4 6 -3 10 2 9 4 -2 34
1 65 5 73 10 148 0 148 -20 0 -8 6 -14 14 -14 8 0 24 -12 35 -26 11 -14 25
-23 30 -20 5 4 17 -1 26 -10 28 -28 27 -8 -1 25 -42 50 -115 82 -198 87 -39 2
-78 1 -86 -2z"/>
<path d="M1495 2741 c-3 -6 9 -7 30 -4 33 5 35 4 35 -21 0 -32 20 -35 21 -3 1
21 1 21 8 -3 l7 -25 6 27 c4 23 1 27 -25 32 -43 9 -75 7 -82 -3z"/>
<path d="M1647 2713 c8 -13 13 -30 9 -38 -4 -12 6 -15 59 -15 49 0 65 3 65 14
0 8 5 16 10 18 6 2 12 13 15 26 7 36 -18 21 -27 -16 -6 -23 -14 -32 -29 -32
-18 0 -21 5 -17 35 2 22 0 34 -6 32 -6 -2 -10 -18 -8 -35 3 -27 0 -32 -17 -32
-16 0 -21 6 -21 25 0 14 -3 24 -7 24 -20 -3 -27 2 -13 11 12 7 10 9 -7 8 -19
-2 -20 -4 -6 -25z"/>
<path d="M0 2643 c0 -11 5 -13 18 -8 9 4 22 6 27 5 6 -1 148 -4 318 -6 204 -3
307 -1 307 6 0 6 -72 10 -202 11 -112 0 -263 2 -335 4 -113 2 -133 1 -133 -12z"/>
<path d="M965 2640 c-4 -6 22 -10 69 -10 44 0 76 4 76 10 0 6 -30 10 -69 10
-39 0 -73 -4 -76 -10z"/>
<path d="M2310 2621 c8 -5 49 -11 90 -14 l75 -6 -75 14 c-41 7 -82 14 -90 14
-13 0 -13 -1 0 -8z"/>
<path d="M65 2610 c-4 -6 -4 -14 -1 -17 3 -4 6 -1 6 5 0 18 28 14 38 -5 6 -10
16 -14 26 -10 21 8 21 27 -1 27 -10 0 -28 3 -39 6 -12 3 -25 1 -29 -6z"/>
<path d="M543 2609 c-7 -7 -13 -24 -12 -38 0 -16 3 -20 6 -11 3 8 10 18 15 21
6 4 8 14 6 23 -2 14 -5 15 -15 5z"/>
<path d="M613 2613 c-7 -2 -13 -11 -13 -19 0 -9 4 -13 9 -9 6 3 12 -14 14 -37
3 -38 4 -36 5 15 1 31 1 57 0 56 -2 0 -9 -3 -15 -6z"/>
<path d="M663 2603 c-3 -8 0 -19 8 -24 9 -6 15 -4 17 6 4 19 31 19 38 0 4 -8
10 -12 15 -9 5 3 9 -12 8 -33 0 -30 -2 -34 -9 -18 -7 16 -9 11 -9 -21 -1 -28
-6 -44 -16 -48 -12 -4 -15 2 -15 28 0 21 -6 36 -15 40 -11 4 -15 -2 -15 -23 0
-16 -7 -34 -15 -41 -12 -10 -15 -7 -21 14 -3 14 -10 26 -14 26 -5 0 -11 15
-13 33 -3 22 -4 17 -5 -19 -3 -72 -27 -81 -36 -13 -7 54 -26 58 -26 6 0 -18
-4 -38 -9 -46 -17 -26 -31 0 -31 56 0 68 -7 65 -17 -7 -8 -56 -27 -76 -38 -40
-3 11 -10 18 -15 15 -5 -3 -11 3 -13 12 -3 12 -5 8 -6 -9 -1 -36 -20 -40 -48
-10 l-23 25 0 -25 c0 -13 -6 -30 -12 -37 -11 -10 64 -11 378 -5 l391 7 9 -43
c6 -31 17 -48 36 -59 30 -17 87 -81 107 -119 7 -13 15 -21 18 -18 3 3 0 12 -7
21 -24 29 -1 27 28 -3 l29 -29 26 19 c31 23 108 28 130 9 12 -9 16 -8 21 4 8
21 -28 34 -117 40 -70 5 -71 5 -32 -8 32 -10 36 -14 22 -20 -31 -12 -65 -8
-71 8 -3 8 -14 15 -24 15 -10 0 -40 22 -67 50 -26 27 -52 47 -56 45 -9 -6 -23
25 -20 48 1 9 -7 29 -18 43 -12 15 -21 34 -22 43 0 10 -4 7 -10 -8 -16 -40
-30 -10 -27 55 3 50 6 59 21 56 10 -2 17 3 17 13 0 11 -11 15 -40 15 -37 0
-40 -2 -30 -19 11 -21 14 -100 4 -125 -14 -37 -24 -11 -24 62 l0 78 -166 1
c-140 1 -166 -1 -171 -14z m127 -34 c0 -16 5 -29 10 -29 6 0 10 -5 10 -11 0
-5 -4 -8 -9 -5 -4 3 -8 -2 -8 -12 0 -41 -4 -52 -18 -52 -12 0 -15 15 -15 75 0
62 2 73 15 69 9 -4 15 -19 15 -35z m130 -38 c0 -87 -36 -96 -42 -11 l-4 45 -8
-41 c-16 -80 -46 -86 -46 -9 0 26 -5 45 -12 47 -9 3 -8 9 4 21 22 23 38 21 38
-3 0 -26 26 -16 34 13 6 22 7 22 21 3 8 -11 15 -40 15 -65z m50 -1 c0 -54 -3
-70 -14 -70 -10 0 -15 16 -18 54 -4 67 0 86 18 86 11 0 14 -16 14 -70z"/>
<path d="M1634 2604 c3 -9 6 -18 6 -20 0 -2 5 -4 10 -4 6 0 10 8 10 17 0 9 3
14 6 10 3 -3 3 -75 -1 -161 -5 -109 -11 -153 -19 -150 -6 2 -36 -11 -66 -31
-37 -24 -56 -31 -61 -23 -4 6 -6 -1 -6 -15 2 -18 8 -27 20 -27 9 0 17 4 17 9
0 5 19 18 43 30 23 12 38 21 33 21 -5 0 -3 7 4 15 9 10 17 12 30 5 17 -9 19 0
25 149 7 145 15 195 29 180 3 -3 1 -68 -4 -145 -5 -76 -11 -155 -12 -174 -1
-20 2 -42 7 -50 7 -10 14 48 21 173 11 177 16 209 30 194 4 -3 -1 -119 -10
-258 -15 -228 -15 -271 -2 -258 2 2 9 87 15 189 6 102 14 220 17 263 l7 77
-78 0 c-66 0 -76 -2 -71 -16z"/>
<path d="M1791 2418 c-7 -112 -15 -236 -18 -275 -4 -44 -2 -73 4 -73 5 0 17
116 27 268 10 147 20 270 23 275 2 4 -2 7 -10 7 -10 0 -16 -43 -26 -202z"/>
<path d="M2330 2575 c44 -12 228 -48 263 -51 9 -1 45 -7 80 -13 284 -54 350
-61 324 -34 -8 7 -662 113 -692 112 -11 -1 0 -7 25 -14z"/>
<path d="M41 2570 c-3 -39 97 -1151 105 -1159 14 -14 14 26 -1 171 -29 291
-36 380 -46 548 -13 226 -23 332 -34 350 -5 8 -12 35 -16 60 -3 25 -7 38 -8
30z"/>
<path d="M117 2541 c1 -14 10 -114 18 -221 9 -107 31 -375 50 -595 19 -220 37
-438 40 -485 4 -47 10 -132 16 -190 13 -153 12 -200 -6 -200 -25 0 -34 33 -39
147 -3 61 -10 142 -15 180 -6 37 -10 82 -10 98 1 48 -13 127 -21 118 -4 -4 3
-114 16 -243 13 -129 23 -254 24 -277 0 -41 -11 -55 -25 -33 -4 6 -11 8 -16 5
-5 -4 -9 0 -9 7 0 8 -4 49 -9 93 -18 151 -21 185 -27 287 -3 57 -9 107 -15
113 -15 15 -9 -83 26 -379 14 -125 11 -146 -19 -146 -21 0 -23 7 -39 168 -34
322 -40 377 -45 363 -4 -11 12 -204 23 -286 10 -71 25 -212 25 -238 0 -26 -3
-28 -30 -23 -28 4 -30 2 -29 -27 1 -18 3 -25 6 -15 5 21 33 32 33 13 0 -22 28
-18 35 5 7 22 30 27 39 8 4 -9 10 -6 22 9 19 26 34 30 34 8 0 -22 12 -18 37
12 18 22 22 24 23 11 0 -26 13 -22 39 13 21 28 22 32 7 55 -9 13 -12 24 -6 24
6 0 6 9 0 25 -5 14 -9 40 -8 58 1 19 -2 39 -6 45 -3 5 0 13 6 15 10 4 10 8 -1
15 -10 7 -12 20 -7 46 5 24 3 36 -4 36 -7 0 -10 30 -9 88 0 48 -2 114 -5 147
-3 33 -11 116 -16 185 -6 69 -13 145 -15 170 -2 25 -9 86 -16 135 -6 50 -12
156 -12 238 0 110 -3 147 -12 147 -16 0 -23 45 -21 133 0 37 -3 67 -8 67 -4 0
-6 20 -4 45 2 26 -1 46 -8 49 -6 2 -9 -7 -7 -23z"/>
<path d="M2295 2515 c3 -27 17 -120 30 -205 14 -85 26 -166 28 -179 4 -28 14
-32 420 -172 156 -54 227 -74 227 -65 0 12 -194 88 -259 102 -14 3 -29 8 -34
11 -5 3 -66 25 -135 49 -70 25 -128 49 -130 54 -2 6 -13 10 -25 10 -43 1 -52
20 -70 155 -10 72 -23 159 -29 195 -13 81 -32 116 -23 45z"/>
<path d="M270 2489 c0 -14 13 -221 30 -460 16 -238 32 -478 36 -531 4 -54 9
-98 13 -98 11 0 36 20 25 20 -12 0 -30 162 -39 365 -4 72 -11 175 -15 230 -5
55 -9 116 -8 135 l1 35 8 -40 c5 -26 6 -4 3 60 -2 64 -1 93 5 79 5 -11 11 -90
14 -175 3 -85 2 -131 -2 -104 l-8 50 -1 -47 c-2 -52 6 -81 19 -72 5 3 9 0 9
-5 0 -6 -4 -11 -10 -11 -5 0 -9 -17 -9 -37 l1 -38 9 30 c5 19 6 -11 5 -80 -3
-74 -1 -95 4 -65 6 33 7 19 5 -50 -1 -58 0 -83 5 -65 7 27 8 24 10 -20 1 -27
4 -44 7 -37 3 7 -2 122 -11 255 -9 133 -20 308 -25 388 -5 81 -14 157 -21 169
-6 12 -9 28 -6 35 2 7 -2 19 -10 25 -11 10 -14 10 -14 0 0 -27 -12 0 -17 37
-6 45 -13 57 -13 22z"/>
<path d="M197 2453 c7 -71 11 -75 12 -10 1 31 -3 57 -8 57 -5 0 -6 -21 -4 -47z"/>
<path d="M1297 2488 c-7 -20 3 -32 30 -36 18 -3 21 0 16 14 -5 13 -3 15 8 9
12 -7 12 -5 1 6 -11 12 -14 12 -21 0 -7 -11 -11 -10 -18 4 -8 14 -11 15 -16 3z"/>
<path d="M1550 2480 c0 -7 -7 -10 -15 -6 -17 6 -21 -19 -5 -29 6 -3 10 -1 10
5 0 7 8 9 19 5 27 -8 77 5 59 16 -20 13 -40 11 -32 -3 4 -7 -2 -4 -14 6 -14
12 -22 15 -22 6z"/>
<path d="M1415 2469 c-19 -7 -19 -8 3 -8 12 -1 22 -5 22 -10 0 -5 16 -9 35 -8
38 2 48 16 13 18 -13 1 -27 1 -32 0 -5 -1 -12 2 -15 7 -3 5 -15 6 -26 1z"/>
<path d="M1826 2347 c-11 -82 -17 -313 -7 -292 5 11 10 43 10 70 2 107 15 221
22 195 6 -21 7 -18 8 16 1 59 -25 68 -33 11z"/>
<path d="M211 2320 c0 -25 6 -130 14 -235 8 -104 22 -287 30 -405 20 -277 24
-310 37 -287 5 10 7 30 4 45 -14 66 -57 722 -51 775 4 38 3 57 -4 53 -5 -4
-14 16 -19 46 l-10 53 -1 -45z"/>
<path d="M1070 2322 c0 -17 7 -37 15 -45 8 -8 11 -18 7 -22 -4 -4 3 -3 15 3
18 10 20 9 16 -8 -3 -11 2 -36 11 -55 10 -19 14 -40 11 -45 -3 -6 -1 -10 6
-10 7 0 9 10 7 25 -3 14 -1 25 3 25 5 0 9 4 9 10 0 5 -6 7 -14 4 -10 -4 -13 6
-11 46 3 58 -17 78 -42 44 -13 -18 -14 -16 -11 15 2 21 -2 36 -9 38 -9 3 -13
-6 -13 -25z"/>
<path d="M1875 2262 c2 -52 6 -96 9 -99 8 -9 6 93 -3 147 -6 34 -8 22 -6 -48z"/>
<path d="M4 2234 c-8 -31 -3 -93 37 -529 17 -181 36 -334 41 -340 7 -7 8 6 4
37 -5 29 -3 55 4 69 7 13 8 19 2 15 -7 -4 -13 14 -16 46 -3 29 -19 192 -37
363 -23 221 -28 310 -20 313 14 5 15 52 1 52 -5 0 -13 -12 -16 -26z"/>
<path d="M1848 2143 c-3 -65 -1 -122 3 -128 5 -5 9 3 9 19 0 16 5 46 12 68 9
31 9 41 -1 47 -8 6 -10 23 -5 59 4 33 3 52 -3 52 -6 0 -13 -49 -15 -117z"/>
<path d="M2080 2224 c-30 -13 -72 -27 -92 -30 -20 -4 -44 -15 -53 -24 -16 -18
-14 -18 42 0 68 21 193 70 193 76 0 10 -39 0 -90 -22z"/>
<path d="M1060 2230 c-13 -8 -13 -10 1 -10 9 0 20 -7 23 -16 5 -14 4 -15 -9
-4 -12 10 -15 10 -15 -4 0 -9 -7 -16 -15 -16 -18 0 -18 -8 0 -40 l14 -25 1 27
c0 22 4 26 24 24 14 -2 27 3 30 10 3 8 2 14 -3 14 -5 0 -12 11 -15 25 -7 27
-13 30 -36 15z"/>
<path d="M1601 2222 c-41 -20 -54 -44 -19 -34 29 9 68 34 68 44 0 12 -12 10
-49 -10z"/>
<path d="M1660 2204 c1 -36 2 -38 15 -20 19 25 19 31 0 46 -13 11 -15 7 -15
-26z"/>
<path d="M1363 2205 c-57 -25 -36 -47 23 -25 15 6 42 11 60 12 27 1 32 4 23
15 -15 17 -65 16 -106 -2z"/>
<path d="M996 2201 c-4 -5 -20 -12 -36 -16 -17 -4 -30 -11 -30 -16 0 -11 14
-12 24 -1 4 4 21 12 39 18 18 6 26 13 20 17 -7 4 -14 3 -17 -2z"/>
<path d="M1697 2193 c-11 -10 -8 -81 3 -88 6 -4 10 8 10 29 0 19 3 41 6 50 6
16 -7 22 -19 9z"/>
<path d="M1498 2176 c-20 -11 -28 -11 -32 -3 -3 7 -4 1 -3 -12 2 -18 -6 -28
-30 -40 -38 -19 -41 -27 -13 -34 11 -3 20 -10 20 -15 0 -6 -11 -7 -27 -3 -16
5 -27 13 -25 20 3 17 -29 13 -50 -5 -10 -9 -32 -17 -50 -18 -21 -1 -40 -9 -51
-24 -24 -28 -33 -22 -63 42 -20 42 -24 46 -24 25 0 -15 18 -53 39 -85 42 -63
39 -79 -14 -70 -15 3 -23 1 -20 -5 4 -5 10 -7 15 -4 5 3 11 1 15 -5 3 -5 2
-10 -3 -10 -6 0 -12 -7 -15 -14 -4 -10 -1 -13 8 -10 10 4 12 0 8 -15 -3 -11
-9 -18 -14 -15 -5 3 -9 -4 -9 -14 0 -11 7 -22 15 -26 8 -3 15 -11 15 -19 0
-17 50 -54 83 -62 14 -4 28 -16 31 -28 3 -12 8 -18 12 -14 4 3 20 -5 36 -18
16 -14 35 -25 42 -25 8 0 16 -17 20 -40 3 -22 11 -40 16 -40 6 0 10 -12 10
-26 0 -14 -4 -23 -8 -20 -4 2 -9 -7 -10 -22 -1 -14 -6 -30 -11 -35 -10 -10
-41 19 -41 38 0 8 -4 16 -9 19 -4 3 -7 -6 -5 -21 1 -15 -3 -35 -10 -45 -13
-18 -14 -18 -19 4 -3 13 -4 39 -1 58 l4 35 -13 -30 c-11 -24 -21 -31 -47 -33
-18 -1 -37 -5 -41 -8 -12 -7 -11 -50 1 -72 5 -9 12 -48 16 -87 4 -38 9 -62 11
-52 6 24 23 22 23 -3 0 -11 4 -19 9 -17 5 1 20 -10 34 -25 19 -21 32 -26 56
-23 18 2 31 0 31 -7 0 -7 5 -6 15 2 8 7 15 10 15 7 0 -3 15 0 34 8 18 8 36 11
40 8 3 -4 6 2 6 13 1 15 8 11 35 -20 19 -22 37 -37 38 -35 2 2 -19 38 -47 79
-59 87 -82 96 -149 57 -31 -18 -52 -23 -79 -19 l-38 4 0 64 c0 52 -3 64 -16
64 -9 0 -14 7 -12 17 4 21 28 30 28 10 0 -9 10 -17 22 -19 18 -2 24 -12 29
-41 3 -20 9 -41 14 -45 4 -4 4 12 0 34 l-6 42 48 -5 c26 -3 55 -9 63 -13 13
-7 15 0 10 51 -3 32 -2 68 2 80 6 15 2 32 -12 56 -26 44 -25 58 1 39 37 -26
110 17 108 64 0 9 -4 6 -9 -7 -6 -13 -18 -23 -30 -23 -11 0 -20 -4 -20 -10 0
-5 -11 -10 -25 -10 -14 0 -25 4 -25 10 0 5 -7 7 -15 4 -9 -4 -41 14 -81 45
-37 28 -73 51 -80 51 -43 0 -111 69 -84 85 6 3 10 17 10 30 0 13 8 30 18 37
27 19 43 53 31 65 -17 17 1 43 30 41 14 -1 43 6 63 16 26 12 42 15 55 8 20
-10 115 -9 151 3 22 6 23 5 17 -17 l-7 -23 24 23 c25 23 48 29 48 13 0 -6 -4
-13 -10 -16 -5 -3 -10 -13 -10 -21 0 -8 4 -13 8 -10 4 2 6 -11 4 -31 -3 -25
-1 -34 7 -29 6 4 11 31 11 60 0 29 3 56 7 60 4 3 8 13 9 21 2 10 -6 9 -32 -6
-25 -13 -40 -16 -57 -10 -13 5 -30 5 -38 1 -14 -8 -80 8 -95 22 -3 4 5 12 18
19 12 6 27 18 31 25 12 21 29 17 66 -17 24 -21 37 -27 44 -20 6 6 19 11 28 11
10 0 20 3 23 8 2 4 -13 6 -35 4 -43 -5 -69 10 -69 39 0 23 -6 23 -42 5z m-23
-838 c14 -6 25 -15 25 -19 0 -4 3 -14 6 -23 4 -11 -5 -18 -33 -26 -49 -15
-138 -10 -138 8 0 11 85 68 107 71 4 1 19 -4 33 -11z"/>
<path d="M989 2167 c-18 -13 -51 -129 -39 -137 4 -3 7 -21 8 -40 0 -19 2 -93
5 -163 3 -119 -1 -179 -19 -267 -11 -54 11 -24 30 40 25 91 29 159 15 291 -13
128 -13 194 -1 213 3 6 5 19 4 29 -2 10 3 17 12 17 9 0 16 4 16 9 0 16 -14 20
-31 8z"/>
<path d="M840 2140 c-62 -28 -73 -43 -13 -18 15 6 31 12 35 12 3 1 10 4 14 9
4 4 16 7 26 7 10 0 18 5 18 10 0 14 -7 12 -80 -20z"/>
<path d="M2120 2147 c-14 -7 -52 -23 -85 -35 -84 -33 -109 -46 -96 -50 13 -4
144 47 201 78 38 21 20 28 -20 7z"/>
<path d="M1373 2135 c-11 -11 -8 -13 12 -12 14 1 26 7 26 12 0 16 -25 16 -38
0z"/>
<path d="M1886 2079 c-9 -89 -8 -141 4 -134 14 9 25 -44 11 -58 -6 -6 -11 -16
-11 -22 0 -5 5 -3 10 5 8 12 10 12 10 -5 1 -28 26 -61 33 -43 3 7 6 3 6 -9 1
-12 4 -30 7 -40 3 -10 -1 -7 -10 7 -13 23 -15 18 -15 -75 0 -58 -5 -101 -11
-103 -16 -6 -12 -49 6 -56 12 -5 15 -13 10 -34 -4 -15 -7 -34 -7 -43 0 -9 -7
-16 -14 -16 -8 0 -12 4 -9 8 6 10 -15 23 -23 15 -4 -3 5 -19 19 -34 25 -27 46
-68 29 -58 -14 9 -19 -52 -8 -99 8 -37 7 -50 -14 -91 -12 -27 -29 -55 -36 -62
-7 -8 -11 -18 -7 -23 3 -5 2 -9 -3 -8 -23 4 -32 -2 -26 -18 6 -15 4 -16 -9 -5
-17 14 -35 1 -24 -17 4 -5 -3 -7 -14 -4 -11 3 -20 1 -20 -4 0 -12 -58 -4 -66
8 -3 5 -18 9 -33 9 -16 0 -40 9 -55 21 -16 13 -24 15 -20 6 3 -10 -11 -21 -47
-35 -61 -26 -84 -27 -133 -7 -20 8 -36 12 -36 9 0 -4 -7 -1 -15 6 -10 9 -15 9
-15 1 0 -17 -25 -13 -54 10 l-26 20 0 -20 c0 -21 -24 -29 -35 -12 -3 5 -18 10
-33 10 -45 0 -93 9 -107 21 -9 8 -15 8 -20 0 -8 -13 -52 -13 -60 0 -3 6 -17
10 -30 10 -13 0 -49 9 -78 20 -31 12 -62 17 -72 14 -13 -5 -16 -4 -11 4 4 8 0
12 -12 12 -10 0 -27 8 -38 18 -19 18 -20 18 -49 0 l-30 -18 31 0 c17 0 49 -7
69 -16 21 -8 46 -13 56 -11 10 3 17 0 16 -6 -1 -6 9 -13 23 -15 14 -1 34 -7
45 -11 45 -19 194 -51 209 -45 9 3 23 1 30 -5 9 -8 48 -11 103 -10 91 2 129
-4 175 -27 24 -13 36 -11 105 11 77 24 142 34 115 16 -9 -5 7 -12 47 -21 55
-12 62 -11 93 8 36 22 80 66 95 96 6 11 40 28 88 43 42 13 75 26 73 29 -3 2
-19 -1 -37 -7 -25 -9 -36 -8 -56 5 -24 16 -25 15 -25 -3 0 -11 -4 -23 -10 -26
-13 -8 -13 11 0 35 9 17 15 182 8 236 -4 31 113 112 124 86 6 -16 7 -16 7 1 1
21 -14 21 208 -2 202 -21 242 -34 281 -92 27 -40 43 -30 -138 -84 -69 -20
-167 -49 -218 -65 -89 -27 -96 -27 -137 -14 -24 9 -51 24 -61 35 -21 23 -30
24 -37 4 -13 -33 134 -102 181 -84 14 5 31 8 38 5 6 -2 109 -73 228 -156 l216
-152 46 16 c45 15 99 13 89 -4 -3 -4 2 -11 11 -14 9 -4 14 -9 11 -12 -3 -3
-15 0 -27 6 -18 10 -25 8 -41 -9 -11 -12 -26 -21 -34 -21 -8 0 -40 -32 -72
-72 -32 -39 -78 -96 -103 -126 -25 -30 -49 -62 -55 -71 -19 -32 -89 -111 -98
-111 -5 0 -16 -9 -25 -19 -10 -11 -91 -50 -182 -87 -167 -67 -415 -169 -590
-241 -107 -45 -173 -78 -130 -67 20 5 303 120 464 189 37 16 38 16 31 -2 -14
-36 -17 -93 -6 -121 24 -57 119 -83 155 -43 10 11 20 43 23 73 5 48 2 57 -21
85 -15 17 -41 35 -59 39 -28 6 -30 8 -12 15 218 88 341 142 364 161 26 20 125
138 273 326 28 34 52 62 55 62 2 0 20 -12 38 -26 l34 -25 27 40 27 41 -99 106
c-153 165 -215 237 -209 242 3 3 11 -3 19 -13 12 -17 27 -22 78 -27 9 -1 14
-6 12 -10 -3 -4 5 -12 17 -18 11 -6 27 -26 35 -43 12 -25 14 -27 10 -7 -3 14
-9 35 -12 48 -6 20 -3 22 27 22 23 0 30 3 20 9 -20 13 15 22 92 25 69 3 110
-14 99 -42 -5 -14 -4 -15 10 -2 15 14 15 17 1 33 -9 9 -22 17 -30 17 -7 0 -12
6 -10 13 3 15 -130 14 -146 -2 -6 -6 -25 -11 -43 -11 -18 0 -34 -5 -36 -12 -5
-14 -148 27 -148 42 0 5 6 7 13 5 6 -3 86 1 177 9 141 12 167 12 176 0 6 -8
15 -14 20 -14 4 0 20 -12 35 -26 l26 -25 7 27 c4 14 5 29 1 32 -3 3 -5 0 -5
-6 0 -19 -28 -14 -40 8 -13 25 -62 50 -87 46 -11 -2 -78 -7 -149 -11 -148 -8
-178 -17 -181 -58 -2 -24 16 -48 100 -139 56 -61 112 -122 123 -137 l22 -26
-61 3 c-58 4 -65 8 -206 105 -239 166 -262 184 -248 195 6 5 32 15 57 22 25 7
54 16 65 20 67 28 384 123 405 122 29 -2 211 -81 222 -97 5 -6 8 -4 8 5 0 17
-194 120 -226 120 -11 0 -46 -9 -76 -19 -30 -10 -59 -16 -65 -12 -5 3 -15 20
-22 37 -15 38 -71 95 -71 73 0 -8 8 -19 19 -26 10 -6 30 -32 44 -57 20 -35 22
-46 11 -50 -8 -3 -14 0 -15 7 -3 45 -23 70 -81 102 -27 15 -506 70 -517 60 -2
-3 5 -5 17 -5 36 0 25 -23 -28 -58 -52 -34 -60 -30 -35 17 15 31 11 43 -11 34
-10 -4 -14 3 -14 21 0 16 6 26 14 26 11 0 13 12 9 59 -3 32 -2 61 3 64 5 3 8
-18 7 -46 -2 -38 0 -45 6 -27 l8 25 5 -25 c5 -24 5 -24 7 4 0 16 -3 45 -9 65
-9 33 -30 123 -60 260 -8 32 -15 48 -20 41 -4 -7 -6 17 -3 54 7 83 -2 87 -11
5z m913 -1195 c3 -3 0 -9 -7 -16 -8 -8 -15 -8 -27 2 -22 19 -18 32 8 24 12 -3
24 -8 26 -10z m-793 -596 c68 -30 89 -71 62 -120 -31 -55 -63 -53 -98 5 -22
35 -26 78 -10 108 13 23 10 22 46 7z"/>
<path d="M531 2109 c-58 -5 -110 -14 -115 -20 -11 -11 20 -10 247 7 42 3 80
10 83 15 6 11 -69 10 -215 -2z"/>
<path d="M683 2061 c-45 -25 -89 -53 -97 -61 -16 -16 -67 -107 -111 -196 -27
-55 -65 -194 -64 -234 0 -21 4 -18 20 18 10 24 17 47 14 51 -13 22 94 277 121
288 7 2 10 12 8 21 -2 9 0 24 5 32 9 12 15 11 43 -10 18 -13 27 -17 21 -8 -7
8 -9 18 -5 22 4 4 3 6 -3 4 -5 -1 -10 2 -10 7 0 6 6 9 13 9 6 -1 12 4 12 12 0
8 9 14 19 14 11 0 21 6 24 13 3 9 7 9 19 0 19 -17 31 -4 15 15 -10 13 -9 15 6
9 11 -4 17 -2 17 8 0 18 11 19 30 3 12 -11 12 -10 0 7 -8 11 -14 20 -15 21 0
0 -37 -20 -82 -45z"/>
<path d="M1406 2028 c3 -5 13 -7 21 -4 8 3 24 -1 36 -8 19 -12 27 -12 52 -1
l30 13 -40 3 c-22 1 -55 3 -73 5 -19 1 -30 -2 -26 -8z"/>
<path d="M818 1984 c15 -19 32 -34 37 -34 6 0 3 5 -5 10 -8 5 -11 10 -7 10 15
0 -13 38 -32 43 -18 4 -17 1 7 -29z"/>
<path d="M1589 1943 c-1 -37 -3 -42 -8 -23 -7 23 -8 22 -15 -14 -6 -32 -3 -44
20 -77 15 -21 32 -39 39 -39 7 0 16 -7 19 -16 4 -12 1 -14 -14 -9 -38 12 -78
-98 -45 -125 26 -21 64 -21 75 0 13 24 13 57 0 65 -5 3 -7 0 -4 -9 8 -20 -3
-36 -21 -30 -14 6 -17 44 -3 44 4 0 5 6 2 14 -3 9 3 20 15 28 26 16 26 22 0
47 -18 16 -21 28 -16 61 3 23 1 38 -4 34 -5 -3 -9 -22 -9 -42 l0 -37 -16 30
c-11 22 -13 35 -5 53 14 29 14 79 1 87 -6 4 -10 -13 -11 -42z"/>
<path d="M425 1973 c-11 -3 -24 -9 -29 -14 -12 -11 123 0 144 12 16 9 -79 10
-115 2z"/>
<path d="M2150 1965 c-14 -7 -58 -33 -98 -55 -41 -23 -72 -44 -69 -46 4 -4
207 105 207 112 0 7 -15 3 -40 -11z"/>
<path d="M610 1954 c0 -6 7 -17 15 -24 8 -7 15 -19 15 -26 0 -8 7 -14 15 -14
12 0 13 3 5 13 -5 6 -19 23 -30 37 -10 14 -19 20 -20 14z"/>
<path d="M1084 1919 c3 -17 6 -42 6 -55 0 -13 4 -24 9 -24 5 0 8 8 6 18 -2 9
-4 34 -4 55 -1 20 -6 37 -12 37 -8 0 -9 -11 -5 -31z"/>
<path d="M901 1895 c-8 -29 -11 -65 -6 -103 5 -47 3 -61 -9 -71 -9 -8 -16 -23
-16 -35 0 -12 -4 -26 -9 -31 -14 -15 -23 -55 -13 -55 5 0 17 15 26 33 8 17 16
28 16 22 0 -13 20 17 20 30 0 6 -5 3 -10 -5 -6 -9 -10 -10 -10 -3 0 21 12 43
21 37 5 -3 9 -2 10 3 4 69 4 223 0 223 -4 0 -13 -20 -20 -45z"/>
<path d="M804 1914 c3 -9 6 -31 6 -50 0 -22 4 -33 10 -29 17 10 9 95 -8 95 -9
0 -12 -6 -8 -16z"/>
<path d="M2165 1881 c-84 -50 -148 -95 -153 -109 -2 -8 27 9 66 37 39 27 89
59 111 71 39 19 51 30 34 30 -5 0 -30 -13 -58 -29z"/>
<path d="M742 1856 c-1 -19 5 -39 12 -45 11 -9 12 -4 6 29 -10 53 -16 59 -18
16z"/>
<path d="M2650 1821 c0 -6 8 -11 18 -11 10 0 23 -5 29 -11 8 -8 13 -8 18 1 9
15 5 19 -33 26 -21 4 -32 3 -32 -5z"/>
<path d="M2175 1798 c-11 -6 -22 -14 -25 -17 -3 -3 -24 -19 -46 -34 -23 -15
-52 -40 -65 -55 -24 -26 -23 -26 16 3 22 17 68 49 103 72 57 38 69 60 17 31z"/>
<path d="M2248 1803 c-10 -2 -18 -10 -18 -16 0 -7 -11 -23 -23 -37 -28 -32
-206 -156 -233 -163 -10 -2 -2 -3 20 0 27 2 54 17 93 49 31 25 75 56 99 70 24
14 46 34 49 45 4 11 16 29 28 39 21 20 18 22 -15 13z"/>
<path d="M2340 1780 c0 -11 9 -13 62 -10 21 1 99 -4 175 -10 165 -15 193 -28
193 -90 0 -32 -3 -38 -16 -33 -13 5 -15 1 -10 -24 5 -23 0 -38 -23 -70 -20
-28 -26 -43 -18 -47 7 -2 5 -5 -4 -5 -27 -2 -32 -31 -6 -31 18 0 32 16 62 67
51 86 77 150 65 158 -6 3 -10 2 -10 -4 0 -6 -6 -8 -14 -5 -9 4 -13 16 -11 34
2 16 0 32 -5 35 -6 4 -7 -2 -3 -12 5 -15 2 -14 -16 4 -27 29 -37 31 -206 43
-176 13 -215 13 -215 0z"/>
<path d="M2765 1779 c6 -16 51 -39 60 -31 11 11 4 28 -12 28 -10 1 -26 5 -36
9 -12 5 -16 3 -12 -6z"/>
<path d="M651 1732 c-1 -6 12 -33 29 -60 16 -26 30 -41 30 -34 0 12 -28 62
-41 72 -3 3 -9 12 -12 20 -3 9 -6 10 -6 2z"/>
<path d="M1723 1698 c-17 -23 -29 -48 -26 -55 7 -17 13 -11 18 14 1 10 8 17
15 15 6 -1 9 2 6 7 -4 5 -1 11 6 13 9 3 24 49 15 48 -1 -1 -16 -19 -34 -42z"/>
<path d="M2635 1709 c-15 -28 -14 -29 15 -44 30 -15 30 -15 41 11 12 34 7 50
-20 57 -16 4 -25 -2 -36 -24z"/>
<path d="M805 1678 c9 -59 15 -60 15 -5 0 26 -5 47 -10 47 -7 0 -9 -16 -5 -42z"/>
<path d="M2180 1682 c-19 -15 -44 -35 -54 -44 -11 -10 -28 -20 -38 -24 -27 -8
-22 -24 8 -24 31 0 106 63 116 97 3 13 6 23 5 23 -1 -1 -18 -13 -37 -28z"/>
<path d="M562 1658 c13 -22 43 -62 66 -87 l44 -46 -40 50 c-21 28 -49 67 -61
88 -31 51 -38 47 -9 -5z"/>
<path d="M1255 1659 c-10 -20 -15 -43 -12 -51 4 -9 6 -7 6 5 1 21 15 22 35 2
8 -8 21 -15 29 -15 9 0 18 -6 20 -12 3 -7 6 -3 6 10 1 12 6 22 11 22 16 0 12
46 -5 60 -9 7 -29 14 -45 15 -24 1 -31 -4 -45 -36z m70 -9 c0 -8 -8 -16 -17
-18 -13 -2 -18 3 -18 18 0 15 5 20 18 18 9 -2 17 -10 17 -18z"/>
<path d="M1044 1627 c-38 -44 -71 -104 -78 -143 -5 -28 -4 -35 3 -24 6 8 11
23 11 33 0 11 8 17 22 17 12 0 19 3 15 6 -10 11 14 63 28 58 8 -4 15 7 19 31
9 46 5 50 -20 22z"/>
<path d="M540 1635 c0 -6 14 -26 30 -45 16 -19 29 -30 29 -25 0 6 -13 26 -29
45 -17 19 -30 30 -30 25z"/>
<path d="M1670 1621 c0 -24 -81 -178 -105 -201 -14 -13 -25 -31 -25 -40 0 -9
-4 -20 -10 -26 -10 -10 42 -97 75 -124 17 -14 17 -13 5 10 -7 14 -22 39 -34
55 -35 47 -39 56 -24 53 8 -2 12 5 11 19 -2 14 4 24 17 28 12 4 17 12 13 22
-4 11 -2 14 5 9 11 -6 17 5 13 27 0 4 4 7 9 7 5 0 10 9 10 21 0 11 5 17 10 14
6 -3 10 4 10 16 0 21 5 19 46 -21 26 -25 42 -36 36 -24 -6 11 -18 27 -27 34
-24 20 -51 74 -34 68 10 -4 14 3 13 23 -1 28 -14 56 -14 30z"/>
<path d="M1565 1595 c-16 -8 -42 -14 -57 -15 -30 0 -38 -17 -13 -26 26 -10 78
5 110 31 26 21 27 24 10 24 -11 0 -33 -7 -50 -14z"/>
<path d="M2240 1588 c0 -9 80 -21 111 -16 13 1 -6 8 -43 13 -38 6 -68 7 -68 3z"/>
<path d="M454 1526 c19 -30 86 -99 86 -88 0 3 6 -3 14 -14 8 -10 17 -16 21
-12 4 4 -4 17 -18 30 -116 109 -122 113 -103 84z"/>
<path d="M2051 1459 c-44 -40 -79 -75 -76 -77 3 -3 37 23 77 58 40 35 77 67
82 72 5 4 7 10 4 13 -3 4 -42 -26 -87 -66z"/>
<path d="M1473 1493 c3 -10 11 -40 17 -68 15 -60 30 -80 30 -41 0 34 -31 126
-43 126 -5 0 -6 -8 -4 -17z"/>
<path d="M1798 1504 c6 -3 9 -10 6 -16 -5 -7 2 -9 20 -4 18 4 25 3 21 -4 -3
-5 1 -10 9 -10 24 0 19 18 -6 25 -36 10 -64 15 -50 9z"/>
<path d="M2188 1454 c-24 -25 -67 -66 -96 -90 -67 -55 -57 -58 12 -5 47 37 91
80 125 124 27 35 0 16 -41 -29z"/>
<path d="M932 1443 c-5 -10 -12 -31 -16 -48 -11 -44 10 -19 22 28 11 40 8 48
-6 20z"/>
<path d="M885 1408 c-4 -16 -11 -28 -16 -28 -5 0 -9 -8 -9 -18 0 -10 -5 -23
-12 -30 -6 -6 -9 -14 -6 -18 9 -8 60 95 55 109 -3 7 -8 0 -12 -15z"/>
<path d="M296 1375 c-19 -14 -19 -21 -8 -147 22 -236 26 -368 14 -368 -7 0
-12 -7 -12 -15 0 -22 16 -18 32 8 21 32 15 253 -10 387 -22 118 -19 130 34
130 l34 0 -5 -82 c-3 -46 -8 -96 -11 -113 -4 -21 -2 -26 4 -16 5 7 15 10 21 7
14 -9 14 7 1 20 -6 6 -8 18 -5 27 5 12 14 8 47 -24 56 -55 69 -49 14 6 -47 49
-62 87 -48 125 5 13 7 33 4 45 -3 18 -11 22 -45 23 -23 1 -51 -5 -61 -13z"/>
<path d="M450 1253 c0 -15 14 -24 57 -33 24 -6 33 -5 30 3 -2 6 -19 13 -37 14
-19 2 -37 9 -42 16 -6 9 -8 9 -8 0z"/>
<path d="M703 1219 c-11 -11 -90 -22 -176 -23 -31 -1 -57 -4 -57 -7 0 -13 73
-20 128 -13 32 5 61 7 66 6 4 -2 14 2 20 8 7 5 15 7 19 4 3 -3 10 4 17 15 11
22 1 28 -17 10z"/>
<path d="M1286 1214 c-9 -24 -7 -54 4 -54 5 0 9 16 8 35 -1 39 -3 42 -12 19z"/>
<path d="M2606 1170 c63 -75 204 -224 204 -217 0 7 -76 91 -179 196 -35 36
-47 46 -25 21z"/>
<path d="M545 1154 c-33 -7 -91 -14 -128 -15 -50 -1 -67 -5 -63 -14 2 -7 0
-17 -6 -23 -8 -8 -4 -9 13 -5 13 3 29 9 34 13 6 4 24 10 40 14 29 6 29 6 10
-9 -11 -8 -28 -22 -37 -30 -13 -11 -18 -11 -19 -2 0 6 -5 -1 -9 -16 -6 -19 -4
-40 6 -65 28 -69 45 -102 52 -102 10 0 8 42 -2 58 -4 7 -2 12 6 12 10 0 10 2
-1 9 -7 5 -11 13 -8 18 3 5 -3 17 -14 26 -10 9 -19 21 -19 26 0 23 88 78 143
91 32 7 60 17 63 22 3 4 4 7 2 7 -2 -1 -30 -8 -63 -15z"/>
<path d="M2803 1161 c-24 -4 -46 -11 -50 -16 -5 -4 7 -5 26 -1 18 3 49 6 68 6
20 0 32 4 28 10 -7 11 -9 11 -72 1z"/>
<path d="M2898 1140 c-2 -6 -38 -12 -80 -13 -43 -1 -79 -7 -82 -12 -5 -14 13
-36 41 -52 18 -11 24 -10 31 3 8 15 42 10 42 -7 0 -5 5 -9 11 -9 6 0 9 7 5 15
-3 8 -1 15 4 15 5 0 11 -10 13 -22 3 -18 5 -17 6 7 1 23 3 27 11 15 5 -8 10
-27 10 -42 0 -16 13 -42 31 -63 35 -39 34 -55 -3 -31 -12 8 -27 15 -33 15 -5
0 -13 15 -16 33 l-6 33 -11 -27 c-6 -15 -9 -35 -5 -45 4 -10 2 -14 -4 -10 -6
4 -16 0 -22 -7 -8 -9 -8 -17 -2 -20 5 -3 11 -1 13 5 3 9 14 8 40 -1 21 -8 35
-17 33 -21 -3 -4 1 -6 8 -5 6 0 13 -3 14 -7 2 -10 35 -36 46 -37 14 0 7 41 -8
45 -51 16 -51 17 -28 25 13 6 21 17 20 29 0 11 -4 18 -8 15 -8 -5 -19 21 -19
47 0 10 -4 19 -10 19 -6 0 -10 27 -10 60 0 45 -4 60 -14 60 -8 0 -16 -5 -18
-10z m-18 -37 c0 -9 -3 -13 -7 -10 -3 4 -12 2 -19 -4 -8 -7 -14 -7 -19 1 -4 6
-13 7 -23 1 -10 -5 -27 -4 -42 2 -24 10 -22 11 20 16 89 11 90 11 90 -6z"/>
<path d="M2984 1075 c1 -35 4 -67 9 -71 4 -4 7 22 7 59 0 36 -4 68 -8 71 -5 3
-8 -24 -8 -59z"/>
<path d="M1040 1050 c0 -5 -9 -10 -19 -10 -26 0 -36 -17 -14 -23 14 -4 14 -5
-3 -6 -27 -1 -39 -28 -16 -34 9 -3 4 -6 -13 -7 -16 -1 -24 -4 -17 -7 6 -2 12
-11 12 -19 0 -8 6 -14 13 -14 8 0 9 -3 1 -8 -6 -4 -10 -15 -8 -24 2 -19 -6
-23 -21 -9 -16 14 -102 23 -110 11 -4 -6 5 -10 24 -10 16 0 42 -5 58 -11 l28
-11 -25 -11 c-14 -6 -27 -14 -30 -18 -3 -4 -25 -10 -50 -14 -25 -4 -75 -15
-112 -25 -36 -10 -69 -16 -72 -12 -3 3 -6 -2 -6 -11 0 -10 -8 -17 -19 -17 -11
0 -23 -5 -26 -10 -5 -8 -11 -7 -21 1 -9 7 -14 8 -14 1 0 -7 -10 -5 -27 4 -42
21 -49 17 -19 -13 l27 -27 122 40 c67 21 124 41 127 44 3 3 14 6 25 8 11 1 34
5 52 8 29 6 33 4 47 -31 9 -20 29 -54 46 -75 16 -21 30 -43 30 -49 0 -10 18
-49 132 -291 117 -246 139 -290 148 -285 6 3 10 2 10 -4 0 -6 12 -14 26 -17
14 -4 23 -12 20 -19 -5 -13 12 -35 26 -35 4 0 4 7 1 17 -4 11 -3 14 5 9 7 -4
12 -14 12 -22 0 -8 10 -14 26 -14 l26 0 -21 36 c-31 52 -29 151 4 222 29 64
29 63 9 55 -8 -3 -13 -12 -10 -19 3 -8 1 -14 -4 -14 -6 0 -10 5 -10 10 0 17
-18 11 -46 -15 -26 -24 -51 -34 -40 -16 4 5 0 12 -6 15 -7 4 -3 4 10 2 12 -2
20 0 17 4 -3 5 0 10 6 12 17 6 -7 48 -27 48 -11 0 -12 -4 -4 -19 16 -31 12
-35 -9 -10 -32 40 -36 13 -7 -46 28 -58 28 -58 84 -38 8 4 10 0 6 -10 -3 -9
-11 -14 -17 -11 -25 8 -39 -11 -27 -37 13 -29 -3 -83 -23 -77 -13 4 -105 181
-226 438 -89 189 -141 280 -158 280 -7 0 -13 4 -13 8 0 11 86 33 105 26 9 -4
15 -1 15 9 0 10 -8 13 -25 9 -23 -4 -25 -1 -25 29 0 52 18 105 46 139 20 23
22 30 10 30 -9 0 -16 -4 -16 -10z"/>
<path d="M1110 998 c-11 -18 -20 -42 -19 -53 0 -12 6 -5 15 19 8 21 19 45 25
52 6 8 9 14 5 14 -3 0 -15 -15 -26 -32z"/>
<path d="M1525 960 c10 -11 21 -17 25 -15 4 3 13 -2 20 -10 9 -11 9 -15 1 -15
-7 0 -10 -4 -6 -9 3 -6 -21 1 -52 14 -32 13 -60 22 -62 20 -8 -8 11 -23 36
-28 16 -3 56 -29 91 -56 34 -28 67 -51 72 -51 10 0 14 19 12 51 -1 17 57 50
98 55 14 2 56 10 94 19 78 18 57 28 169 -79 106 -100 115 -108 127 -104 6 2
-41 54 -104 117 -64 62 -121 111 -128 109 -7 -3 -73 -22 -146 -42 l-133 -37
-28 30 c-27 29 -68 51 -93 51 -6 0 -3 -9 7 -20z m94 -60 c4 0 13 -11 19 -25
14 -30 9 -31 -29 -4 -31 22 -40 45 -13 35 9 -3 19 -6 23 -6z"/>
<path d="M1071 883 c-13 -47 -14 -53 -1 -53 6 0 33 -15 60 -34 l50 -35 -57
-16 c-81 -22 -83 -23 -83 -34 0 -10 25 -9 36 2 4 4 21 7 38 7 43 0 77 11 70
21 -9 15 14 10 64 -12 71 -30 84 -38 117 -65 47 -38 4 -31 -53 9 -67 47 -94
55 -47 13 81 -71 206 -121 197 -77 -2 9 5 11 25 7 15 -3 35 -1 43 5 13 9 13
10 -2 6 -9 -3 -22 1 -29 9 -6 8 -20 12 -29 9 -11 -4 -43 11 -84 40 -36 25 -73
45 -81 45 -9 0 -33 9 -55 20 -22 11 -45 20 -53 20 -7 0 -22 7 -33 16 -10 8
-13 13 -6 9 6 -3 12 -1 12 5 0 5 -16 18 -35 27 -22 10 -35 24 -35 35 0 12 -4
16 -11 12 -9 -5 -10 1 -5 20 10 41 -2 31 -13 -11z"/>
<path d="M2409 825 c-408 -141 -782 -275 -788 -282 -3 -3 3 -3 14 1 11 4 43
13 71 21 28 7 86 27 128 44 43 17 86 31 96 31 10 0 47 13 82 28 34 16 81 32
103 36 38 7 229 68 270 86 11 5 65 24 120 42 89 28 165 63 165 74 0 9 -25 1
-261 -81z"/>
<path d="M1375 890 c-3 -4 16 -16 42 -26 43 -17 191 -125 219 -160 12 -15 44
-9 44 9 0 6 -3 7 -6 4 -4 -3 -15 -2 -26 4 -20 11 -20 11 2 31 22 20 23 39 2
46 -7 2 -10 -2 -6 -12 7 -18 -18 -32 -38 -22 -24 11 -53 31 -87 60 -30 25 -31
28 -10 22 18 -6 20 -5 9 3 -8 6 -22 8 -31 6 -8 -3 -36 6 -62 19 -25 14 -49 21
-52 16z"/>
<path d="M394 862 c-29 -15 -62 -34 -74 -42 l-23 -16 20 -44 c12 -28 18 -59
15 -81 l-4 -36 -164 -49 c-90 -27 -164 -52 -164 -56 0 -13 21 -9 100 18 41 14
104 32 140 40 89 21 113 38 108 75 -3 16 -4 29 -3 29 1 0 16 -7 33 -16 40 -19
68 -11 75 22 l5 26 -25 -26 c-27 -29 -35 -33 -27 -12 4 11 0 13 -15 9 -17 -4
-20 -2 -15 11 3 9 1 16 -5 16 -6 0 -11 7 -11 15 0 8 -4 15 -8 15 -4 0 -7 11
-7 25 1 17 15 34 43 55 53 38 64 38 60 -2 -2 -23 -11 -36 -28 -45 -16 -8 -19
-13 -9 -13 28 0 57 33 63 73 9 47 -7 48 -80 9z"/>
<path d="M1730 875 c31 -42 120 -146 120 -139 0 7 -88 114 -119 144 -13 13
-13 13 -1 -5z"/>
<path d="M1329 819 c-11 -7 -11 -9 3 -9 20 0 158 -119 158 -137 0 -7 6 -13 13
-13 6 0 24 -6 39 -14 22 -12 33 -12 73 2 29 9 42 18 34 23 -7 4 -20 2 -29 -3
-24 -15 -47 -4 -67 30 -9 16 -28 34 -42 41 -57 26 -71 36 -66 48 2 7 0 13 -4
13 -5 0 -11 -6 -13 -12 -3 -9 -17 -5 -45 14 -27 18 -44 23 -54 17z m161 -86
c54 -30 63 -43 28 -36 -22 4 -101 62 -86 63 5 0 30 -12 58 -27z"/>
<path d="M2990 812 c0 -10 -7 -27 -15 -39 -14 -20 -14 -23 5 -33 19 -10 20 -8
20 40 0 27 -2 50 -5 50 -3 0 -5 -8 -5 -18z"/>
<path d="M2741 773 c-36 -43 -61 -93 -61 -120 0 -13 41 -39 160 -99 l160 -81
0 32 c0 23 -8 37 -30 53 -16 12 -32 22 -36 22 -12 0 -79 34 -98 49 -10 9 -20
14 -22 12 -9 -6 -69 24 -94 47 -14 13 -18 22 -10 20 18 -5 31 7 47 45 7 15 16
27 21 27 5 0 9 7 9 15 0 24 -13 18 -46 -22z"/>
<path d="M2035 770 c-4 -6 -11 -7 -17 -4 -7 4 -8 2 -4 -4 5 -8 0 -11 -11 -10
-36 3 -54 -2 -47 -13 4 -8 -1 -9 -16 -4 -17 5 -21 4 -17 -6 2 -8 10 -13 16
-11 7 1 10 -2 6 -8 -7 -11 5 -13 29 -4 13 5 14 10 6 20 -9 10 -7 11 14 1 17
-8 21 -14 13 -20 -13 -9 15 -2 71 17 30 10 31 13 19 30 -16 22 -53 31 -62 16z"/>
<path d="M1895 720 c4 -6 -4 -9 -17 -7 -14 1 -23 -3 -23 -12 0 -16 45 -23 65
-11 11 7 11 11 1 24 -15 17 -36 22 -26 6z"/>
<path d="M1740 676 c-36 -13 -98 -33 -137 -46 -40 -13 -73 -27 -73 -32 0 -5
-5 -6 -12 -2 -7 5 -8 3 -3 -6 6 -10 3 -12 -13 -8 -13 4 -20 2 -16 -3 3 -6 -6
-8 -20 -5 -15 3 -24 1 -21 -4 3 -4 -2 -11 -11 -14 -23 -9 -26 -8 -19 7 4 6 0
4 -8 -5 -8 -10 -17 -15 -20 -12 -9 9 -57 -5 -57 -16 0 -6 9 -10 21 -10 11 0
18 4 15 8 -6 11 37 10 45 -1 8 -11 59 2 59 15 0 5 -4 6 -10 3 -6 -4 -7 1 -3
11 6 15 7 15 18 1 16 -23 52 -11 60 20 6 24 7 24 24 9 16 -15 27 -13 150 29
138 47 156 52 131 34 -18 -12 16 -4 65 16 l30 12 -32 0 c-18 0 -30 -4 -27 -9
3 -4 1 -8 -3 -8 -5 0 -14 9 -21 20 -15 25 -31 25 -112 -4z"/>
<path d="M1528 542 c-12 -5 -14 -12 -9 -21 7 -11 13 -9 30 8 21 21 12 26 -21
13z"/>
<path d="M1278 523 c-21 -5 -22 -13 -5 -37 10 -14 18 -15 40 -7 24 10 26 13
15 31 -13 20 -18 22 -50 13z"/>
<path d="M1480 520 c0 -5 -7 -7 -15 -4 -17 7 -19 0 -5 -26 6 -12 17 -16 30
-13 11 3 20 0 20 -6 0 -6 -6 -10 -12 -8 -7 1 -12 -4 -10 -12 2 -11 0 -12 -10
-3 -8 6 -19 7 -26 3 -9 -5 -7 -13 8 -29 12 -12 16 -23 10 -27 -6 -4 -8 -11 -4
-16 3 -6 -5 -7 -20 -3 -26 6 -26 5 -15 -20 7 -14 15 -26 19 -26 4 0 23 37 43
82 35 76 36 82 20 100 -18 20 -33 24 -33 8z"/>
<path d="M1213 500 c-26 -11 -31 -30 -7 -30 23 0 55 20 49 31 -7 11 -13 11
-42 -1z"/>
<path d="M1424 483 c5 -26 5 -27 -6 -5 -12 24 -38 30 -38 8 0 -21 27 -38 50
-31 21 7 24 14 14 39 -10 27 -27 18 -20 -11z"/>
<path d="M1310 470 c-24 -9 -46 -22 -48 -29 -2 -6 -11 -11 -20 -11 -15 0 -15
2 -2 10 10 7 11 10 2 10 -20 0 -26 -29 -10 -48 8 -9 19 -29 26 -44 l11 -27 53
21 c65 24 62 22 49 47 -10 17 -16 19 -37 11 -14 -6 -32 -17 -40 -25 -19 -19
-31 -19 -31 -1 0 13 40 32 104 51 19 5 21 9 11 31 -13 28 -9 27 -68 4z"/>
<path d="M2390 447 c0 -12 34 -104 41 -112 5 -5 0 19 -12 53 -17 51 -29 75
-29 59z"/>
<path d="M1420 420 c13 -25 2 -26 -16 -3 -16 22 -28 12 -19 -16 5 -17 12 -20
33 -15 35 9 35 9 27 33 -3 12 -13 21 -21 21 -12 0 -12 -4 -4 -20z"/>
<path d="M1398 364 c-4 -4 -3 -15 3 -25 6 -12 6 -19 0 -19 -5 0 -12 9 -16 19
-4 12 -12 18 -20 14 -12 -4 -12 -10 -3 -26 6 -12 12 -23 13 -25 5 -6 55 18 55
26 0 15 -25 43 -32 36z"/>
<path d="M2867 265 c-5 -11 1 -19 19 -25 36 -14 41 -13 47 10 3 11 0 20 -6 20
-7 0 -22 3 -33 6 -14 4 -23 0 -27 -11z"/>
<path d="M2963 253 c18 -5 18 -5 0 -19 -10 -7 -13 -14 -6 -14 6 0 18 -3 27 -6
11 -4 16 0 16 14 0 19 -19 33 -43 31 -7 -1 -4 -3 6 -6z"/>
<path d="M1853 139 c-26 -39 -56 -129 -45 -139 2 -3 7 1 9 8 3 6 8 10 13 7 4
-3 6 4 3 15 -6 22 12 28 21 8 3 -7 3 -2 0 12 -5 25 -5 24 20 -5 14 -17 26 -33
26 -37 0 -5 10 -8 21 -8 19 0 18 4 -15 40 -40 44 -46 81 -20 118 8 12 10 22 5
22 -6 0 -23 -18 -38 -41z"/>
<path d="M1941 95 c29 -29 95 -44 125 -27 13 7 7 9 -27 5 -36 -4 -51 0 -84 22
l-40 27 26 -27z"/>
<path d="M2118 82 c2 -20 -2 -42 -12 -57 -16 -24 -16 -25 9 -25 22 0 25 4 25
38 0 21 -6 46 -13 57 -13 16 -14 15 -9 -13z"/>
</g>
</svg>
